name analog
datacolumns 19
datarows 56
range 0.0 0.0275
endheader
time	ground_force_vx	ground_force_vy	ground_force_vz	ground_force_px	ground_force_py	ground_force_pz	l_ground_force_vx	l_ground_force_vy	l_ground_force_vz	l_ground_force_px	l_ground_force_py	l_ground_force_pz	ground_torque_x	ground_torque_y	ground_torque_z	l_ground_torque_x	l_ground_torque_y	l_ground_torque_z
0.0	-0.0	-0.0	-0.0	-2.1948838233947754	53.13939666748047	-449.244873046875	2.093773603439331	-58.38039016723633	-331.1355895996094	-0.0	-0.0	-0.0	-0.0	-0.0	-0.0	54204.44140625	31473.2421875	-6343.662109375
0.0005	-0.0	-0.0	-0.0	-1.7305965423583984	53.12171936035156	-449.1056823730469	2.0404157638549805	-58.32765579223633	-331.27490234375	-0.0	-0.0	-0.0	-0.0	-0.0	-0.0	54254.48046875	31621.6328125	-6319.95654296875
0.001	-0.0	-0.0	-0.0	-2.034364461898804	52.9783821105957	-448.32855224609375	2.0225648880004883	-58.18628692626953	-332.5323181152344	-0.0	-0.0	-0.0	-0.0	-0.0	-0.0	54089.03125	31539.470703125	-6284.27734375
0.0015	-0.0	-0.0	-0.0	-1.8552625179290767	53.33547592163086	-448.3947448730469	1.9337815046310425	-58.45146179199219	-332.11236572265625	-0.0	-0.0	-0.0	-0.0	-0.0	-0.0	54156.203125	31546.1171875	-6302.3427734375
0.002	-0.0	-0.0	-0.0	-2.1045901775360107	52.92524719238281	-449.0322265625	2.218234777450561	-58.39848327636719	-333.09063720703125	-0.0	-0.0	-0.0	-0.0	-0.0	-0.0	54167.25390625	31632.328125	-6378.87841796875
0.0025	-0.0	-0.0	-0.0	-2.0712850093841557	53.30112457275391	-447.1257934570313	2.004355430603028	-58.22190856933594	-332.11151123046875	-0.0	-0.0	-0.0	-0.0	-0.0	-0.0	54288.828125	31689.966796875	-6325.78515625
0.003	-0.0	-0.0	-0.0	-1.8353497982025144	53.21085357666016	-447.3440246582031	2.200517416000366	-57.95620346069336	-333.2328796386719	-0.0	-0.0	-0.0	-0.0	-0.0	-0.0	54063.4375	31317.1484375	-6343.13427734375
0.0035	-0.0	-0.0	-0.0	-2.14105224609375	53.24469757080078	-447.62506103515625	2.25405216217041	-57.97316360473633	-331.6226501464844	-0.0	-0.0	-0.0	-0.0	-0.0	-0.0	54407.50390625	31482.390625	-6331.5625
0.004	-0.0	-0.0	-0.0	-1.888575553894043	53.08808135986328	-446.9125671386719	2.18251895904541	-58.36367034912109	-333.1623229980469	-0.0	-0.0	-0.0	-0.0	-0.0	-0.0	54138.27734375	31478.08203125	-6438.5810546875
0.0045000000000000005	-0.0	-0.0	-0.0	-2.089015483856201	52.97687911987305	-447.7586059570313	2.2177696228027344	-57.98960113525391	-332.6029052734375	-0.0	-0.0	-0.0	-0.0	-0.0	-0.0	54039.4765625	31631.22265625	-6206.82275390625
0.005	-0.0	-0.0	-0.0	-2.0705015659332275	53.46368789672852	-446.9122924804688	2.1642370223999023	-58.363887786865234	-331.5555725097656	-0.0	-0.0	-0.0	-0.0	-0.0	-0.0	54190.4296875	31336.05859375	-6278.0234375
0.0055	-0.0	-0.0	-0.0	-1.9626312255859373	53.12171936035156	-447.962890625	2.324903011322021	-58.25732421875	-331.7665710449219	-0.0	-0.0	-0.0	-0.0	-0.0	-0.0	54635.60546875	31544.611328125	-6272.25634765625
0.006	-0.0	-0.0	-0.0	-2.3898825645446777	53.35393905639648	-447.47900390625	2.4986326694488525	-57.90407180786133	-331.34490966796875	-0.0	-0.0	-0.0	-0.0	-0.0	-0.0	54243.18359375	31506.857421875	-6272.04296875
0.006500000000000001	-0.0	-0.0	-0.0	-2.230262756347656	52.97859573364258	-449.4588317871094	2.362183094024658	-58.22247695922852	-332.3842163085937	-0.0	-0.0	-0.0	-0.0	-0.0	-0.0	54262.95703125	31557.69921875	-6368.1123046875
0.007	-0.0	-0.0	-0.0	-1.8734207153320312	53.45656204223633	-448.1212463378906	2.164095401763916	-58.380638122558594	-332.93511962890625	-0.0	-0.0	-0.0	-0.0	-0.0	-0.0	54298.19140625	31640.208984375	-6231.02197265625
0.0075	-0.0	-0.0	-0.0	-2.39552903175354	52.96245956420898	-447.4036865234375	2.4513113498687744	-58.37823486328125	-332.5301208496094	-0.0	-0.0	-0.0	-0.0	-0.0	-0.0	54323.8203125	31492.134765625	-6260.49267578125
0.008	-0.0	-0.0	-0.0	-1.9435443878173828	53.24588394165039	-447.542236328125	2.322667121887207	-58.1878776550293	-332.38214111328125	-0.0	-0.0	-0.0	-0.0	-0.0	-0.0	54445.19921875	31474.275390625	-6336.98095703125
0.0085	-0.0	-0.0	-0.0	-2.1060268878936768	53.12171936035156	-446.8982543945313	2.2687771320343018	-57.90425109863281	-332.31817626953125	-0.0	-0.0	-0.0	-0.0	-0.0	-0.0	54443.46875	31529.42578125	-6319.8544921875
0.009000000000000001	-0.0	-0.0	-0.0	-1.780745029449463	53.23006057739258	-446.6340942382813	2.3443198204040527	-57.79712677001953	-332.74151611328125	-0.0	-0.0	-0.0	-0.0	-0.0	-0.0	54277.6796875	31417.345703125	-6284.77880859375
0.0095	-0.0	-0.0	-0.0	-2.46658706665039	53.086795806884766	-447.0638427734375	2.255753993988037	-57.6235580444336	-332.5418395996094	-0.0	-0.0	-0.0	-0.0	-0.0	-0.0	54270.18359375	31485.046875	-6265.79345703125
0.01	-0.0	-0.0	-0.0	-2.323302984237671	53.14107894897461	-448.2620239257813	2.322238683700561	-57.71202850341797	-332.3173217773437	-0.0	-0.0	-0.0	-0.0	-0.0	-0.0	54289.15625	31496.9765625	-6229.70556640625
0.0105	-0.0	-0.0	-0.0	-2.036400079727173	53.42396545410156	-446.7726440429688	2.4839019775390625	-57.42815017700195	-331.9062805175781	-0.0	-0.0	-0.0	-0.0	-0.0	-0.0	54230.5546875	31391.703125	-6153.2763671875
0.011	-0.0	-0.0	-0.0	-1.9863295555114744	52.978275299072266	-446.5408325195313	2.341233253479004	-57.289817810058594	-331.05694580078125	-0.0	-0.0	-0.0	-0.0	-0.0	-0.0	54116.07421875	31254.728515625	-6278.4208984375
0.0115	-0.0	-0.0	-0.0	-2.249850988388061	53.18043518066406	-447.26361083984375	2.503179788589477	-56.98667907714844	-331.0716247558594	-0.0	-0.0	-0.0	-0.0	-0.0	-0.0	53927.0234375	31309.2421875	-6314.36328125
0.012	-0.0	-0.0	-0.0	-2.4086837768554688	53.15193176269531	-448.0476684570313	2.16374135017395	-57.24772262573242	-330.3893737792969	-0.0	-0.0	-0.0	-0.0	-0.0	-0.0	53926.48046875	31512.91015625	-6117.3251953125
0.0125	-0.0	-0.0	-0.0	-2.175792694091797	53.10672378540039	-448.4790954589844	2.3369362354278564	-57.055809020996094	-329.8718566894531	-0.0	-0.0	-0.0	-0.0	-0.0	-0.0	53636.81640625	31241.52734375	-6148.1943359375
0.013000000000000001	-0.0	-0.0	-0.0	-1.9428287744522093	53.1019401550293	-447.26318359375	2.380072116851806	-57.07957077026367	-330.1440124511719	-0.0	-0.0	-0.0	-0.0	-0.0	-0.0	54135.74609375	31304.99609375	-6270.4560546875
0.0135	-0.0	-0.0	-0.0	-1.8784929513931277	53.48796081542969	-448.0280151367188	2.3455982208251958	-56.99739456176758	-330.9957275390625	-0.0	-0.0	-0.0	-0.0	-0.0	-0.0	53970.8125	31326.068359375	-6189.4697265625
0.014	-0.0	-0.0	-0.0	-2.1756856441497803	52.92353820800781	-446.9305725097656	2.473716974258423	-56.820533752441406	-330.8011474609375	-0.0	-0.0	-0.0	-0.0	-0.0	-0.0	54030.484375	31365.6015625	-6154.70849609375
0.0145	-0.0	-0.0	-0.0	-1.838823914527893	53.56737518310547	-448.2068786621094	2.360687732696533	-57.07543182373047	-330.84063720703125	-0.0	-0.0	-0.0	-0.0	-0.0	-0.0	54253.85546875	31469.193359375	-6262.033203125
0.015	-0.0	-0.0	-0.0	-1.72070050239563	53.21085357666016	-448.0485229492188	2.2522380352020264	-57.320777893066406	-331.2870483398437	-0.0	-0.0	-0.0	-0.0	-0.0	-0.0	54142.96875	31353.431640625	-6194.60400390625
0.0155	-0.0	-0.0	-0.0	-1.9281044006347656	53.38053512573242	-448.458740234375	2.572612762451172	-57.232452392578125	-330.9383239746094	-0.0	-0.0	-0.0	-0.0	-0.0	-0.0	53994.83984375	31390.171875	-6378.96142578125
0.016	-0.0	-0.0	-0.0	-1.763980507850647	53.25955581665039	-448.1288757324219	2.572612762451172	-57.54608154296875	-330.66796875	-0.0	-0.0	-0.0	-0.0	-0.0	-0.0	54026.78125	31384.0	-6296.72119140625
0.0165	-0.0	-0.0	-0.0	-1.9767826795578003	53.58765411376953	-448.0489501953125	2.415179252624512	-57.58015060424805	-330.3761291503906	-0.0	-0.0	-0.0	-0.0	-0.0	-0.0	54105.203125	31326.5	-6272.0205078125
0.017	-0.0	-0.0	-0.0	-1.8045812845230105	53.46420669555664	-448.7554321289063	2.403677225112915	-57.69403076171875	-331.20977783203125	-0.0	-0.0	-0.0	-0.0	-0.0	-0.0	53924.609375	31468.677734375	-6267.28466796875
0.0175	-0.0	-0.0	-0.0	-2.127112865447998	53.375186920166016	-446.7174377441406	2.4294822216033936	-57.69409942626953	-331.37713623046875	-0.0	-0.0	-0.0	-0.0	-0.0	-0.0	54086.58984375	31327.451171875	-6267.30322265625
0.018000000000000002	-0.0	-0.0	-0.0	-1.599102258682251	53.46442413330078	-447.8604736328125	2.2801315784454346	-57.8507080078125	-330.9404296875	-0.0	-0.0	-0.0	-0.0	-0.0	-0.0	53896.86328125	31394.486328125	-6351.77783203125
0.0185	-0.0	-0.0	-0.0	-1.6949996948242188	53.71135330200195	-447.9136657714844	2.2456724643707275	-57.81663513183594	-332.043212890625	-0.0	-0.0	-0.0	-0.0	-0.0	-0.0	53991.92578125	31473.5859375	-6372.6357421875
0.019	-0.0	-0.0	-0.0	-1.9626312255859373	53.56079864501953	-448.56640625	2.2519540786743164	-57.708099365234375	-331.6395568847656	-0.0	-0.0	-0.0	-0.0	-0.0	-0.0	54021.453125	31478.73828125	-6290.40185546875
0.0195	-0.0	-0.0	-0.0	-1.8049414157867432	53.169429779052734	-449.269775390625	2.25859808921814	-57.64708709716797	-330.4581298828125	-0.0	-0.0	-0.0	-0.0	-0.0	-0.0	54255.87109375	31715.78125	-6313.2314453125
0.02	-0.0	-0.0	-0.0	-1.894220471382141	53.6163215637207	-450.6575927734375	2.3201122283935547	-57.78277969360352	-330.9421081542969	-0.0	-0.0	-0.0	-0.0	-0.0	-0.0	54080.91015625	31594.044921875	-6365.68994140625
0.0205	-0.0	-0.0	-0.0	-1.6115092039108276	53.53894805908203	-450.0865173339844	2.4427921772003174	-58.08174133300781	-330.1632995605469	-0.0	-0.0	-0.0	-0.0	-0.0	-0.0	54157.72265625	31587.24609375	-6226.36572265625
0.021	-0.0	-0.0	-0.0	-2.017709255218506	53.53327178955078	-447.8536682128906	2.491115093231201	-57.71413040161133	-330.5937805175781	-0.0	-0.0	-0.0	-0.0	-0.0	-0.0	54218.9921875	31491.32421875	-6345.123046875
0.021500000000000002	-0.0	-0.0	-0.0	-1.6660557985305786	53.47824096679688	-449.6812438964844	2.4972140789031982	-57.9522819519043	-330.914306640625	-0.0	-0.0	-0.0	-0.0	-0.0	-0.0	54044.21484375	31491.654296875	-6333.85302734375
0.022	-0.0	-0.0	-0.0	-1.8734207153320312	53.2448844909668	-449.6173095703125	2.708498239517212	-57.79620742797852	-331.8277587890625	-0.0	-0.0	-0.0	-0.0	-0.0	-0.0	54154.140625	31419.328125	-6379.16259765625
0.0225	-0.0	-0.0	-0.0	-1.592923641204834	53.59308242797852	-449.91839599609375	2.3612561225891118	-57.65331268310547	-328.9828796386719	-0.0	-0.0	-0.0	-0.0	-0.0	-0.0	54123.12890625	31286.685546875	-6233.6552734375
0.023	-0.0	-0.0	-0.0	-1.8182002305984497	53.38911437988281	-450.3884582519531	2.429091215133667	-57.37534713745117	-330.9446105957031	-0.0	-0.0	-0.0	-0.0	-0.0	-0.0	54175.171875	31412.40625	-6212.63037109375
0.0235	-0.0	-0.0	-0.0	-2.15370774269104	53.69906234741211	-451.88580322265625	2.4839019775390625	-57.068641662597656	-329.9989929199219	-0.0	-0.0	-0.0	-0.0	-0.0	-0.0	54213.96875	31298.896484375	-6221.13134765625
0.024	-0.0	-0.0	-0.0	-1.8269555568695068	53.51213073730469	-450.5233154296875	2.43729567527771	-57.9135856628418	-330.6466064453125	-0.0	-0.0	-0.0	-0.0	-0.0	-0.0	53899.8125	31465.619140625	-6139.353515625
0.0245	-0.0	-0.0	-0.0	-1.6949996948242188	53.558372497558594	-450.6083679199219	2.597949504852295	-57.619384765625	-331.04559326171875	-0.0	-0.0	-0.0	-0.0	-0.0	-0.0	54088.14453125	31344.337890625	-6189.9716796875
0.025	-0.0	-0.0	-0.0	-1.6273033618927002	53.813270568847656	-451.095947265625	2.6063716411590576	-57.50600814819336	-330.9957275390625	-0.0	-0.0	-0.0	-0.0	-0.0	-0.0	54041.05078125	31306.0625	-6212.537109375
0.025500000000000002	-0.0	-0.0	-0.0	-1.8180218935012815	53.66871643066406	-451.2301025390625	2.728769063949585	-57.35435104370117	-330.5628662109375	-0.0	-0.0	-0.0	-0.0	-0.0	-0.0	53950.59375	31304.59765625	-6157.2490234375
0.026000000000000002	-0.0	-0.0	-0.0	-1.716659665107727	53.475677490234375	-451.0965270996094	2.3738534450531006	-57.37555694580078	-330.9471435546875	-0.0	-0.0	-0.0	-0.0	-0.0	-0.0	53936.1875	31337.466796875	-6342.58984375
0.0265	-0.0	-0.0	-0.0	-1.9288902282714844	53.61079406738281	-450.6960754394531	2.670483112335205	-57.27507781982422	-329.8158264160156	-0.0	-0.0	-0.0	-0.0	-0.0	-0.0	53904.7578125	31227.181640625	-6245.16015625
0.027	-0.0	-0.0	-0.0	-2.053846836090088	53.3217658996582	-450.69677734375	2.7836503982543945	-57.34215927124024	-329.3345031738281	-0.0	-0.0	-0.0	-0.0	-0.0	-0.0	53603.0546875	31281.333984375	-6197.06982421875
0.0275	-0.0	-0.0	-0.0	-2.0636355876922607	53.580867767333984	-448.63189697265625	2.505452871322632	-57.29931640625	-329.7312927246094	-0.0	-0.0	-0.0	-0.0	-0.0	-0.0	53674.04296875	31228.091796875	-6171.6630859375
